<?xml version="1.0" encoding="UTF-8" standalone="no"?>
<!-- Created with Inkscape (http://www.inkscape.org/) -->

<svg
   xmlns:dc="http://purl.org/dc/elements/1.1/"
   xmlns:cc="http://creativecommons.org/ns#"
   xmlns:rdf="http://www.w3.org/1999/02/22-rdf-syntax-ns#"
   xmlns:svg="http://www.w3.org/2000/svg"
   xmlns="http://www.w3.org/2000/svg"
   xmlns:sodipodi="http://sodipodi.sourceforge.net/DTD/sodipodi-0.dtd"
   xmlns:inkscape="http://www.inkscape.org/namespaces/inkscape"
   width="300.00015"
   height="338.1882"
   id="svg8750"
   version="1.1"
   inkscape:version="0.91pre2 r13532"
   viewBox="0 0 300.00015 338.18821"
   sodipodi:docname="Toy Story  logo.svg">
  <defs
     id="defs8752" />
  <sodipodi:namedview
     id="base"
     pagecolor="#ffffff"
     bordercolor="#666666"
     borderopacity="1.0"
     inkscape:pageopacity="0.0"
     inkscape:pageshadow="2"
     inkscape:zoom="0.35"
     inkscape:cx="89.285791"
     inkscape:cy="-710.9059"
     inkscape:document-units="px"
     inkscape:current-layer="layer1"
     showgrid="false"
     fit-margin-top="0"
     fit-margin-left="0"
     fit-margin-right="0"
     fit-margin-bottom="0"
     inkscape:window-width="944"
     inkscape:window-height="1011"
     inkscape:window-x="0"
     inkscape:window-y="0"
     inkscape:window-maximized="0" />
  <metadata
     id="metadata8755">
    <rdf:RDF>
      <cc:Work
         rdf:about="">
        <dc:format>image/svg+xml</dc:format>
        <dc:type
           rdf:resource="http://purl.org/dc/dcmitype/StillImage" />
        <dc:title></dc:title>
      </cc:Work>
    </rdf:RDF>
  </metadata>
  <g
     inkscape:label="Layer 1"
     inkscape:groupmode="layer"
     id="layer1"
     transform="translate(372.85723,516.73192)">
    <g
       transform="translate(-372.85723,-562.85578)"
       id="g8697">
      <path
         inkscape:connector-curvature="0"
         d="M 7.2344381,264.88218 20.554398,160.78854 257.52149,169.89965 273.05648,245.92255 7.2344381,264.88218 Z"
         style="fill:#ec1b39;fill-opacity:1;fill-rule:nonzero;stroke:none"
         id="path8606" />
      <path
         inkscape:connector-curvature="0"
         d="m 87.35343,108.56473 c 1.443598,-3.52675 3.209099,-6.88191 5.273813,-10.027194 l -6.391255,-0.27936 1.117442,10.306554 z"
         style="fill:#ffffff;fill-opacity:1;fill-rule:nonzero;stroke:none"
         id="path8618" />
      <path
         inkscape:connector-curvature="0"
         d="m 87.35343,108.56473 c 1.443598,-3.52675 3.209099,-6.88191 5.273813,-10.027194 l -6.391255,-0.27936 1.117442,10.306554 z"
         style="fill:none;stroke:#ffffff;stroke-width:6.53306246;stroke-linecap:butt;stroke-linejoin:miter;stroke-miterlimit:3.86299992;stroke-dasharray:none;stroke-opacity:1"
         id="path8622" />
      <path
         inkscape:connector-curvature="0"
         d="m 142.75187,115.92666 c -7.39241,0 -13.41213,6.0183 -13.41781,13.41781 -0.003,3.58489 1.3883,6.95706 3.92239,9.49542 2.53268,2.53693 5.9006,3.93657 9.48266,3.9394 7.38816,0 13.39086,-6.01688 13.3937,-13.41355 0.003,-7.40092 -5.99845,-13.43057 -13.37527,-13.43908 l -0.006,-0.99832 0,0.99832 z m -0.29921,74.56795 c -33.06805,-0.0284 -59.94904,-26.95615 -59.922096,-60.02845 0.02836,-33.043933 26.926366,-59.929179 59.958966,-59.929179 8.73107,0.0068 17.37564,1.921489 25.20908,5.553174 l -11.74023,-28.808153 60.04263,6.080697 8.15392,29.149909 13.99071,-27.926112 60.07524,5.384424 -53.69391,78.92569 -4.79592,44.39703 -53.68967,-4.67681 0.91608,-7.8859 c -11.37295,12.59958 -27.39292,19.76368 -44.45092,19.76368 l -0.0539,0 z"
         style="fill:#024f9d;fill-opacity:1;fill-rule:nonzero;stroke:none"
         id="path8626" />
      <path
         inkscape:connector-curvature="0"
         d="m 142.73826,143.77662 0.001,-1.99381 c -3.31545,-0.005 -6.4338,-1.29754 -8.77645,-3.64729 -2.34691,-2.34974 -3.63452,-5.4695 -3.63169,-8.78921 0.006,-6.8493 5.57728,-12.42232 12.41949,-12.42232 6.83369,0.009 12.38544,5.59004 12.38403,12.44217 -0.002,6.84646 -5.55601,12.41665 -12.3812,12.41665 l -0.0156,1.99381 z m 11.67074,-97.652764 1.25216,3.070129 10.18601,24.994954 c -7.34703,-3.044603 -15.30809,-4.642771 -23.29894,-4.648443 l -10e-4,0 -0.0567,0 c -33.58281,0 -60.927509,27.330521 -60.955871,60.926084 -0.02836,33.61968 27.299321,60.997 60.919001,61.02536 16.37449,0 31.77334,-6.45649 43.16756,-17.90176 l -0.45237,3.8912 -0.2354,2.03919 2.04345,0.17867 51.69443,4.5038 1.94559,0.16875 0.20988,-1.94134 4.66546,-43.1789 52.59916,-77.317598 1.90873,-2.804948 -3.37785,-0.303468 -57.7099,-5.170294 -1.35284,-0.120536 -0.60835,1.21387 -12.53152,25.009136 -7.27613,-26.008877 -0.36586,-1.310299 -1.35284,-0.136135 -57.71557,-5.845297 -3.29986,-0.333248 z m -11.65515,97.652764 c 7.91569,0 14.37359,-6.44656 14.37643,-14.41046 0.001,-7.96532 -6.44656,-14.42606 -14.37075,-14.43598 l -0.009,0 c -7.94972,0 -14.40762,6.45223 -14.41329,14.41471 -0.0102,7.9639 6.44514,14.42464 14.40053,14.43173 l 0.0157,0 m 14.75364,-95.335632 57.71557,5.845297 8.66726,30.982059 14.84297,-29.626382 57.7099,5.170295 -52.88136,77.730253 -4.71793,43.67239 -51.69443,-4.50238 1.17558,-10.11795 c -10.80997,13.3625 -27.34045,21.90356 -45.81794,21.90356 l -0.0539,0 c -32.569,-0.0284 -58.952248,-26.45557 -58.925304,-59.03013 0.027,-32.553281 26.425794,-58.933693 58.962054,-58.933693 l 0.0554,0 c 9.73366,0.0091 18.95397,2.390871 27.06535,6.606802 l -12.1033,-29.700121"
         style="fill:#ffffff;fill-opacity:1;fill-rule:nonzero;stroke:none"
         id="path8630" />
      <path
         inkscape:connector-curvature="0"
         d="m 127.02232,130.86506 c 0.005,-8.81758 7.1556,-15.96041 15.97034,-15.95474 8.77362,0.006 15.91929,7.16411 15.9122,15.97885 -0.002,8.82041 -7.16411,15.96608 -15.94056,15.95758 -8.80907,-0.005 -15.95049,-7.16127 -15.94198,-15.98169 m 9.08418,-0.63671 c 10e-4,3.52391 2.8489,6.37424 6.35864,6.37849 3.4998,0.005 6.3402,-2.84607 6.33595,-6.36431 0.006,-3.52391 -2.82481,-6.37566 -6.31894,-6.37991 -3.51256,-0.005 -6.36998,2.84465 -6.37565,6.36573"
         style="fill:#024f9d;fill-opacity:1;fill-rule:nonzero;stroke:none"
         id="path8634" />
      <path
         inkscape:connector-curvature="0"
         d="m 127.02232,130.86506 c 0.005,-8.81758 7.1556,-15.96041 15.97034,-15.95474 8.77362,0.006 15.91929,7.16411 15.9122,15.97885 -0.002,8.82041 -7.16411,15.96608 -15.94056,15.95758 -8.80907,-0.005 -15.95049,-7.16127 -15.94198,-15.98169 z m 9.08418,-0.63671 c 10e-4,3.52391 2.8489,6.37424 6.35864,6.37849 3.4998,0.005 6.3402,-2.84607 6.33595,-6.36431 0.006,-3.52391 -2.82481,-6.37566 -6.31894,-6.37991 -3.51256,-0.005 -6.36998,2.84465 -6.37565,6.36573 z"
         style="fill:none;stroke:#ffffff;stroke-width:0.73172563;stroke-linecap:butt;stroke-linejoin:miter;stroke-miterlimit:4;stroke-dasharray:none;stroke-opacity:1"
         id="path8638" />
      <path
         inkscape:connector-curvature="0"
         d="m 71.884806,196.87963 c -3.930898,-1.47763 -9.801721,-2.46745 -14.825953,-2.47028 -11.690594,-0.009 -17.762783,4.17055 -17.768455,12.29469 -0.01418,11.12194 14.515395,9.95203 14.513977,14.33246 -0.0034,1.18267 -1.195435,2.05904 -2.736881,2.05904 -3.287093,0.006 -7.120144,-2.41214 -9.299722,-5.85947 l -4.041509,12.25073 c 5.270978,2.02359 10.794372,2.76808 16.96299,2.7695 12.038021,0.0128 17.815251,-4.41305 17.820923,-12.03944 0.0011,-2.85884 -0.889132,-5.16888 -2.580893,-6.84221 -4.179061,-4.13793 -14.226108,-5.47943 -14.223272,-8.1369 0.0011,-1.2791 0.89764,-2.1654 2.891451,-2.16398 3.376432,0.001 6.713157,1.97538 9.197621,5.37024 l 4.089723,-11.56438 z"
         style="fill:#ffe200;fill-opacity:1;fill-rule:nonzero;stroke:none"
         id="path8642" />
      <path
         inkscape:connector-curvature="0"
         d="m 77.14344,211.26031 8.257439,0.007 -0.01566,20.42167 16.415621,0.0142 0.0157,-20.42167 8.26027,0.007 0.0142,-16.24403 -32.934752,-0.0269 -0.01282,16.24261 z"
         style="fill:#ffe200;fill-opacity:1;fill-rule:nonzero;stroke:none"
         id="path8646" />
      <path
         inkscape:connector-curvature="0"
         d="m 130.64508,212.38767 c 0.002,-2.21644 1.5457,-3.8373 3.68982,-3.83588 2.14129,0.003 3.67707,1.62511 3.67848,3.84297 -0.005,2.21362 -1.54853,3.83873 -3.6884,3.83873 -2.13988,-0.005 -3.67565,-1.63079 -3.6799,-3.84582 m -15.32228,0.97138 c -0.0114,10.6313 8.3411,18.95822 18.98941,18.97099 10.62562,0.005 18.95964,-8.30991 18.97098,-18.93837 0.005,-10.58308 -8.32125,-18.91 -18.9412,-18.91709 -10.64405,-0.0128 -19.0121,8.30281 -19.01919,18.88447"
         style="fill:#ffe200;fill-opacity:1;fill-rule:nonzero;stroke:none"
         id="path8650" />
      <path
         inkscape:connector-curvature="0"
         d="m 178.36976,202.63459 0.99407,-0.003 c 3.08289,0.003 3.88268,2.07465 3.88268,3.65012 -0.001,2.35968 -1.45211,3.43883 -4.4329,3.436 l -0.44669,0 0.003,-7.08328 z m -16.4142,-7.54699 -0.0255,36.67137 16.41561,0.0128 0.0128,-13.58372 c 4.42439,0.006 6.50612,3.84014 7.20239,13.58798 l 17.0183,0.0142 c -0.75016,-7.03365 -3.17791,-13.09165 -7.15702,-17.57844 2.73972,-1.86476 4.23295,-4.71934 4.23579,-8.11421 0.005,-5.46384 -4.11525,-10.98156 -13.47312,-10.99007 l -24.22919,-0.0198 z"
         style="fill:#ffe200;fill-opacity:1;fill-rule:nonzero;stroke:none"
         id="path8654" />
      <path
         inkscape:connector-curvature="0"
         d="m 232.70805,231.81796 0.0128,-16.00011 14.14812,-20.65849 -16.6184,-0.0155 -5.73043,8.31841 -5.71767,-8.3255 -16.61415,-0.0142 14.11267,20.68402 -0.0128,15.99586 16.41987,0.0157 z"
         style="fill:#ffe200;fill-opacity:1;fill-rule:nonzero;stroke:none"
         id="path8658" />
      <path
         inkscape:connector-curvature="0"
         d="m 91.911264,130.75786 c 0.02416,-26.90227 22.314796,-48.693794 49.787126,-48.669687 27.42695,0.02269 49.67793,21.851087 49.65241,48.751927 -0.0185,26.90936 -22.31196,48.69947 -49.73608,48.67536 -27.46807,-0.0212 -49.723309,-21.84825 -49.703456,-48.7576 m 36.379246,-0.59418 c -0.007,7.73417 6.2537,14.01057 13.98787,14.02049 7.69588,0.005 13.97653,-6.26504 13.98078,-13.99922 0.005,-7.737 -6.26079,-14.01623 -13.95384,-14.02332 -7.73275,-0.006 -14.00914,6.26363 -14.01481,14.00205"
         style="fill:#ffe200;fill-opacity:1;fill-rule:nonzero;stroke:none"
         id="path8662" />
      <path
         inkscape:connector-curvature="0"
         d="m 184.36551,89.833688 c 10.22288,10.522102 16.54749,24.853152 16.66803,40.650482 l -0.003,0.48782 c 0.001,4.08546 -0.42117,8.07876 -1.21103,11.93024 l -2.59649,26.14927 32.76457,3.08714 3.79902,-36.54515 45.07061,-66.58704 -35.84604,-3.150959 -22.33749,45.659119 -13.4405,-47.915273 -35.65461,-3.596233 12.78677,29.830584 z"
         style="fill:#ffe200;fill-opacity:1;fill-rule:nonzero;stroke:none"
         id="path8666" />
      <path
         inkscape:connector-curvature="0"
         d="m 10.46735,70.899725 90.90132,-9.822992 3.3197,27.1249 -30.081579,-1.141549 9.733653,86.248616 0.212711,0 -33.465104,3.31546 -8.841685,-85.224772 -28.460726,7.5796 -3.31829,-28.079263 z"
         style="fill:#ffffff;fill-opacity:1;fill-rule:nonzero;stroke:none"
         id="path8670" />
      <path
         inkscape:connector-curvature="0"
         d="M 95.643348,183.69367 42.895287,188.99726 33.604073,105.65144 5.7375202,112.36176 -3.1180322e-6,63.778582 109.79714,52.059626 l 5.97292,47.593366 -29.42927,-1.290446 9.302558,85.331124 z"
         style="fill:#024f9d;fill-opacity:1;fill-rule:nonzero;stroke:none"
         id="path8674" />
      <path
         inkscape:connector-curvature="0"
         d="m 10.46735,70.899725 90.90132,-9.822992 3.3197,27.1249 -30.081579,-1.141549 9.733653,86.248616 0.212711,0 -33.465104,3.31546 -8.841685,-85.224772 -28.460726,7.5796 -3.31829,-28.079263 z"
         style="fill:#ffe200;fill-opacity:1;fill-rule:nonzero;stroke:none"
         id="path8678" />
      <path
         inkscape:connector-curvature="0"
         d="m 39.807564,161.40426 3.133941,27.56451 52.67574,-5.19015 -2.202268,-20.57199 c 0,0 1.367023,1.9144 2.154053,3.02901 l 1.859094,19.0589 -55.982686,5.53757 -3.318291,-29.44061 1.647801,0.0596"
         style="fill:#ffffff;fill-opacity:1;fill-rule:nonzero;stroke:none"
         id="path8682" />
      <path
         inkscape:connector-curvature="0"
         d="m 193.00739,304.74124 c 2.7539,-4.5903 4.47402,-9.45003 5.11924,-14.453 0.17443,-1.36844 0.26518,-2.75815 0.26518,-4.13368 0,-4.96325 -1.10893,-10.23423 -3.29134,-15.66687 -2.9581,-7.33144 -8.08302,-13.92548 -14.82596,-19.07592 -5.63117,-4.30101 -12.19826,-7.59094 -18.92844,-9.50109 -5.44398,-1.7187 -12.63077,-2.30862 -15.42579,-2.48021 -3.53101,-0.25809 -7.21941,-0.24249 -12.04795,0.0467 -9.70529,0.62112 -18.19955,2.82906 -18.55407,2.92265 l -1.30888,0.34459 -5.52907,44.85082 9.78045,-1.77827 c 4.72219,-0.81113 8.78638,-1.42232 12.22096,-1.83073 2.5582,-0.251 4.77323,-0.43251 6.77271,-0.26234 2.02217,0.20278 5.3901,0.83099 5.29509,2.83898 -0.001,0.1021 -0.0128,2.7936 -5.47944,2.28593 l -14.93656,-1.30037 -5.31636,39.67485 14.47144,2.42065 1.18267,0.22547 c 4.15637,0.91466 6.36857,2.7695 6.09488,4.95191 -0.49065,2.40789 -4.53783,2.74823 -4.61157,2.75674 -6.56994,0.5105 -19.36237,-6.59121 -19.48575,-6.66069 l -13.49296,-7.69872 -5.876494,48.45981 7.695884,3.52249 c 2.00373,0.89197 3.53242,1.46629 5.30359,2.13704 l 1.56697,0.59701 c 5.73752,2.20226 15.71367,4.95474 26.46975,6.07786 0.10358,0.0113 2.57097,0.29921 6.28065,0.29921 3.78058,0 7.42219,-0.29496 10.83833,-0.88488 1.92858,-0.33041 5.91478,-1.17133 8.32834,-1.98672 2.86593,-0.83808 5.44966,-1.89596 8.91826,-3.66855 3.57638,-1.8279 6.79541,-4.05002 9.54647,-6.59546 4.16346,-3.7508 6.83795,-7.93554 6.94856,-8.10996 l 0.28787,-0.45237 c 0.15031,-0.23256 0.29921,-0.46654 0.44385,-0.70478 l 1.92858,-3.05311 -0.27227,0.0709 c 4.76898,-9.59326 4.61441,-19.13405 4.6059,-19.50701 0.36161,-13.27032 -6.11614,-21.79011 -9.2671,-25.13251 2.91556,-2.66597 6.14309,-5.96016 8.28438,-9.54646"
         style="fill:#ffffff;fill-opacity:1;fill-rule:nonzero;stroke:none"
         id="path8686" />
      <path
         inkscape:connector-curvature="0"
         d="m 176.12494,307.40934 c -2.77092,2.35968 -5.5631,4.12518 -8.37089,5.288 4.30385,3.05453 7.95823,6.98968 10.96029,11.80404 3.00348,4.81435 4.34923,11.14889 3.3424,18.96247 -0.78136,6.06226 -2.99781,11.05955 -5.94882,15.03441 -2.94676,3.96919 -6.55859,7.0464 -10.83833,9.23165 -4.27975,2.18951 -8.71264,3.48563 -13.24764,4.22161 -4.68531,0.76434 -9.3139,0.93167 -13.45326,0.7062 -6.95707,-0.38288 -13.07321,-1.49749 -20.02886,-3.6246 -4.62717,-1.41382 -8.12556,-2.72553 -11.26943,-4.28258 l 2.86309,-23.23229 c 2.19234,1.25216 4.57329,2.33273 7.33995,3.43741 6.38983,2.55679 10.6398,3.00064 13.94249,3.25023 3.64303,0.27368 6.72025,-0.0836 9.37204,-1.10327 2.64329,-1.02101 4.70943,-2.46886 6.21967,-4.34781 1.50458,-1.87327 2.41073,-3.96493 2.70994,-6.25228 0.37863,-2.96236 -0.0639,-5.69073 -1.32023,-8.1837 -1.25783,-2.48872 -4.72076,-8.34678 -15.36765,-9.82016 l -3.54093,-0.59133 2.42916,-18.14141 3.531,0.25383 c 4.36625,0.48499 7.20097,0.1645 9.91375,-1.0125 2.71277,-1.18125 4.75905,-2.73972 6.14734,-4.68673 1.38546,-1.94985 2.20085,-3.84014 2.43484,-5.68506 0.45662,-3.50973 -0.49208,-6.79682 -2.84466,-9.84851 -2.35684,-3.0517 -5.49787,-4.57471 -9.67126,-5.58863 -3.76498,-0.90331 -7.38674,-0.926 -12.11318,-0.46229 -2.83047,0.27652 -5.2341,0.53745 -7.71573,0.98981 l 2.65321,-21.54194 c 3.59482,-0.76434 6.5515,-1.06072 10.24842,-1.28194 9.33375,-0.55305 12.55562,0.0964 18.55265,0.926 7.31867,1.01392 14.83162,4.5506 20.27419,8.70272 5.44114,4.15353 9.08984,9.11962 11.17157,14.28566 2.08032,5.16321 2.84324,9.86554 2.30296,14.09565 -0.44812,3.45584 -1.64922,6.80959 -3.60049,10.07115 -1.94843,3.2559 -4.30669,6.06936 -7.0776,8.42619 m 15.12233,-3.61608 c 2.6135,-4.35916 4.24145,-8.96648 4.85122,-13.68015 0.16025,-1.2706 0.24817,-2.56388 0.24817,-3.87985 0,-4.72218 -1.05647,-9.71947 -3.14954,-14.91955 -2.82197,-7.00386 -7.72708,-13.30578 -14.18215,-18.23783 -5.44257,-4.15354 -11.87636,-7.35555 -18.31867,-9.18628 -5.39718,-1.70169 -12.77825,-2.25474 -14.9706,-2.39229 -3.03609,-0.22264 -6.61105,-0.26093 -11.77709,0.0482 -9.63014,0.61545 -18.18112,2.86309 -18.18112,2.86309 l -5.0299,40.81924 7.13291,-1.29754 c 3.67422,-0.6353 8.20213,-1.35852 12.17557,-1.83357 0.0624,-0.005 0.12054,-0.0128 0.18719,-0.0199 2.74964,-0.26518 4.92638,-0.44811 7.17119,-0.26093 3.16231,0.31907 7.24352,1.38971 7.07477,4.84556 0,0 -0.0524,4.95191 -7.62073,4.25422 l -6.43805,-0.52186 -6.61956,-0.60835 -4.80869,35.87299 12.61093,2.10726 1.24648,0.23966 c 7.7285,1.69601 7.79799,5.89918 7.61931,7.29456 -0.81256,4.0089 -6.40402,4.34781 -6.40402,4.34781 -7.24068,0.58992 -20.62304,-6.90601 -20.62304,-6.90601 l -0.009,0.0113 -10.89506,-6.22959 -5.336204,44.02975 6.348714,2.90705 c 2.49297,1.10893 4.19608,1.70594 6.77839,2.69434 5.9871,2.29727 15.73494,4.88951 25.99044,5.9559 0,0 7.83202,0.93451 16.54608,-0.56864 1.94276,-0.33609 5.78431,-1.1529 8.10995,-1.93567 3.06162,-0.89197 5.64535,-2.03778 8.56517,-3.52817 3.3112,-1.69176 6.39267,-3.77916 9.11962,-6.29908 4.0089,-3.61609 6.60255,-7.70155 6.60255,-7.70155 l -0.0156,0.002 c 6.97691,-10.37887 6.69755,-22.63102 6.69755,-22.63102 0.44812,-16.35606 -10.19736,-25.13393 -10.19736,-25.13393 3.31687,-2.92548 7.15985,-6.60538 9.49967,-10.5221"
         style="fill:#024f9d;fill-opacity:1;fill-rule:nonzero;stroke:none"
         id="path8742" />
      <path
         inkscape:connector-curvature="0"
         d="m 176.12494,307.40934 c -2.77092,2.35968 -5.5631,4.12518 -8.37089,5.288 4.30385,3.05453 7.95823,6.98968 10.96029,11.80404 3.00348,4.81435 4.34923,11.14889 3.3424,18.96247 -0.78136,6.06226 -2.99781,11.05955 -5.94882,15.03441 -2.94676,3.96919 -6.55859,7.0464 -10.83833,9.23165 -4.27975,2.18951 -8.71264,3.48563 -13.24764,4.22161 -4.68531,0.76434 -9.3139,0.93167 -13.45326,0.7062 -6.95707,-0.38288 -13.07321,-1.49749 -20.02886,-3.6246 -4.62717,-1.41382 -8.12556,-2.72553 -11.26943,-4.28258 l 2.86309,-23.23229 c 2.19234,1.25216 4.57329,2.33273 7.33995,3.43741 6.38983,2.55679 10.6398,3.00064 13.94249,3.25023 3.64303,0.27368 6.72025,-0.0836 9.37204,-1.10327 2.64329,-1.02101 4.70943,-2.46886 6.21967,-4.34781 1.50458,-1.87327 2.41073,-3.96493 2.70994,-6.25228 0.37863,-2.96236 -0.0639,-5.69073 -1.32023,-8.1837 -1.25783,-2.48872 -4.72076,-8.34678 -15.36765,-9.82016 l -3.54093,-0.59133 2.42916,-18.14141 3.531,0.25383 c 4.36625,0.48499 7.20097,0.1645 9.91375,-1.0125 2.71277,-1.18125 4.75905,-2.73972 6.14734,-4.68673 1.38546,-1.94985 2.20085,-3.84014 2.43484,-5.68506 0.45662,-3.50973 -0.49208,-6.79682 -2.84466,-9.84851 -2.35684,-3.0517 -5.49787,-4.57471 -9.67126,-5.58863 -3.76498,-0.90331 -7.38674,-0.926 -12.11318,-0.46229 -2.83047,0.27652 -5.2341,0.53745 -7.71573,0.98981 l 2.65321,-21.54194 c 3.59482,-0.76434 6.5515,-1.06072 10.24842,-1.28194 9.33375,-0.55305 12.55562,0.0964 18.55265,0.926 7.31867,1.01392 14.83162,4.5506 20.27419,8.70272 5.44114,4.15353 9.08984,9.11962 11.17157,14.28566 2.08032,5.16321 2.84324,9.86554 2.30296,14.09565 -0.44812,3.45584 -1.64922,6.80959 -3.60049,10.07115 -1.94843,3.2559 -4.30669,6.06936 -7.0776,8.42619"
         style="fill:#ffe200;fill-opacity:1;fill-rule:nonzero;stroke:none"
         id="path8746" />
    </g>
  </g>
</svg>
